<svg id="svg" version="1.1" xmlns="http://www.w3.org/2000/svg" xmlns:xlink="http://www.w3.org/1999/xlink" width="400" height="400" viewBox="0, 0, 400,400"><g id="svgg"><path id="path0" d="M255.985 59.510 C 251.430 75.624,250.858 76.184,234.375 80.664 C 224.915 83.235,224.913 83.179,234.510 85.884 C 250.467 90.381,251.246 91.120,255.615 105.903 C 258.763 116.555,258.711 116.514,260.609 109.844 C 266.180 90.263,266.028 90.411,286.115 84.950 C 292.332 83.260,292.293 83.209,282.813 80.632 C 266.508 76.201,266.367 76.068,261.817 60.826 C 260.398 56.075,259.034 51.967,258.785 51.697 C 258.536 51.427,257.276 54.943,255.985 59.510 M186.264 78.159 C 176.487 111.558,177.645 110.194,153.125 117.200 C 146.422 119.115,140.516 120.838,140.000 121.029 C 139.484 121.220,141.875 122.202,145.313 123.211 C 179.258 133.179,175.894 129.854,185.928 163.362 C 187.861 169.819,188.057 169.753,190.295 161.875 C 198.793 131.959,198.193 132.651,221.536 125.831 C 228.082 123.919,234.141 122.140,235.000 121.879 C 236.957 121.284,237.517 121.496,222.584 117.180 C 198.234 110.143,198.989 110.969,190.621 82.188 C 187.872 72.732,187.856 72.718,186.264 78.159 M98.348 102.031 C 42.673 159.366,41.723 247.706,96.171 304.534 C 171.731 383.397,303.689 356.681,342.219 254.718 C 344.743 248.039,344.680 247.881,340.819 251.201 C 303.182 283.566,245.810 293.668,196.875 276.547 C 125.209 251.474,84.242 174.797,103.720 102.193 C 105.874 94.163,105.985 94.166,98.348 102.031 M272.192 155.156 C 267.669 170.836,267.007 171.490,251.115 175.990 C 246.400 177.325,242.744 178.612,242.990 178.850 C 243.236 179.089,246.109 180.030,249.375 180.942 C 263.114 184.778,265.881 186.226,268.215 190.801 C 269.274 192.878,274.375 209.030,274.375 210.308 C 274.375 211.750,275.520 210.043,276.154 207.656 C 281.657 186.925,282.310 186.168,298.721 181.500 C 303.206 180.224,306.875 178.982,306.875 178.739 C 306.875 178.497,303.148 177.240,298.594 175.947 C 282.440 171.360,282.261 171.163,276.850 152.031 C 274.978 145.411,275.008 145.391,272.192 155.156 M145.008 175.380 C 135.430 184.033,147.646 197.885,157.807 189.893 C 161.256 187.180,162.145 182.330,159.975 178.076 C 157.164 172.566,149.625 171.208,145.008 175.380 M191.800 232.385 C 188.010 235.771,189.726 241.923,194.722 242.860 C 201.404 244.114,204.780 234.681,198.763 231.569 C 196.061 230.172,194.007 230.413,191.800 232.385 " stroke="none" fill="#000000" fill-rule="evenodd"></path></g></svg>