<svg id="svg" version="1.1" xmlns="http://www.w3.org/2000/svg" xmlns:xlink="http://www.w3.org/1999/xlink" width="400" height="400" viewBox="0, 0, 400,400"><g id="svgg"><path id="path0" d="M198.029 45.867 C 178.888 87.903,164.210 106.339,149.952 106.250 C 137.277 106.171,112.502 96.761,87.306 82.456 C 77.189 76.712,77.205 76.712,81.077 82.400 C 91.418 97.589,103.568 124.533,106.418 138.597 C 110.996 161.192,95.365 177.237,49.467 197.056 C 39.706 201.271,39.993 200.903,44.940 202.863 C 55.188 206.925,77.014 218.385,86.162 224.508 C 106.282 237.974,109.403 245.510,103.390 266.106 C 99.949 277.894,87.150 306.465,79.534 319.357 C 76.618 324.294,76.677 324.290,85.941 318.934 C 119.090 299.768,147.635 290.783,157.854 296.298 C 168.188 301.875,182.632 323.508,196.540 354.240 C 199.540 360.869,199.284 360.842,201.869 354.810 C 213.964 326.596,230.694 301.499,240.800 296.408 C 252.651 290.439,274.734 297.298,314.667 319.354 C 318.920 321.703,322.486 323.544,322.591 323.444 C 322.697 323.343,321.212 320.428,319.292 316.964 C 300.716 283.452,290.634 252.756,295.042 243.129 C 299.186 234.077,316.750 221.734,348.267 205.725 C 354.573 202.522,359.798 199.838,359.878 199.761 C 359.957 199.685,355.653 197.411,350.312 194.710 C 321.022 179.893,303.156 166.676,298.535 156.404 C 294.013 146.350,302.275 118.504,320.626 81.954 C 323.419 76.393,323.288 76.328,316.800 80.042 C 280.583 100.772,252.572 109.849,242.137 104.236 C 232.093 98.833,215.946 74.553,202.610 44.800 L 200.579 40.267 198.029 45.867 M218.543 104.766 C 293.427 120.554,322.689 208.805,272.037 266.096 C 232.982 310.271,161.541 308.376,124.019 262.171 C 87.327 216.986,97.937 150.424,146.933 118.419 C 167.126 105.230,195.281 99.861,218.543 104.766 M188.800 107.808 C 120.611 116.065,84.746 194.337,122.852 251.733 C 162.308 311.163,251.646 305.597,283.446 241.728 C 316.387 175.568,262.216 98.918,188.800 107.808 " stroke="none" fill="#000000" fill-rule="evenodd"></path></g></svg>